<svg t="1782783608501" class="icon" viewBox="0 0 1024 1024" version="1.1" xmlns="http://www.w3.org/2000/svg" p-id="17991" width="1024" height="1024"><path d="M864 512v352c0 35.2-28.8 64-64 64H224c-35.2 0-64-28.8-64-64V512c0-35.2 28.8-64 64-64h576c35.2 0 64 28.8 64 64z" fill="#EDF6FF" p-id="17992"></path><path d="M864 864V512H256c-17.6 0-32 14.4-32 32v384h576c35.2 0 64-28.8 64-64z" fill="#84B5FF" p-id="17993"></path><path d="M800 960H224c-52.8 0-96-43.2-96-96V512c0-52.8 43.2-96 96-96h192c17.6 0 32 14.4 32 32s-14.4 32-32 32H224c-17.6 0-32 14.4-32 32v352c0 17.6 14.4 32 32 32h576c17.6 0 32-14.4 32-32V512c0-17.6-14.4-32-32-32h-256c-17.6 0-32-14.4-32-32s14.4-32 32-32h256c52.8 0 96 43.2 96 96v352c0 52.8-43.2 96-96 96z" fill="#2C67CC" p-id="17994"></path><path d="M800 480h-28.8c-49.28 0-89.6-43.2-89.6-96v-64c0-105.92-76.16-192-169.6-192s-169.6 86.08-169.6 192c0 17.6-14.4 32-32 32s-32-14.4-32-32c0-141.12 104.64-256 233.6-256s233.6 114.88 233.6 256v64c0 17.28 11.84 32 25.6 32h28.8c17.6 0 32 14.4 32 32s-14.4 32-32 32zM512 704c-35.2 0-64-28.8-64-64s28.8-64 64-64 64 28.8 64 64-28.8 64-64 64z m0-64z" fill="#2C67CC" p-id="17995"></path><path d="M512 800c-17.6 0-32-14.4-32-32v-96c0-17.6 14.4-32 32-32s32 14.4 32 32v96c0 17.6-14.4 32-32 32z" fill="#2C67CC" p-id="17996"></path></svg>
